<?xml version="1.0" encoding="UTF-8" standalone="no"?>
<svg
  fill="none"
  viewBox="0 0 128 128"
  version="1.1"
  sodipodi:docname="favicon.svg"
  xmlns:sodipodi="http://sodipodi.sourceforge.net/DTD/sodipodi-0.dtd"
  xmlns="http://www.w3.org/2000/svg"
  xmlns:svg="http://www.w3.org/2000/svg">
  <style>
    path {
      fill: none;
      stroke: #800080;
      fill-rule:evenodd;
      stroke-width:8;
      stroke-dasharray:none;
    }
    @media (prefers-color-scheme: dark) {
      path { stroke: #ffc0cb; }
    }
  </style>
<path
  sodipodi:type="spiral"
  d="m 58.472729,61.527271 c 2.00193,2.031086 -1.553369,3.67458 -3.24796,3.201336 -3.936368,-1.099299 -4.464234,-6.180837 -2.725944,-9.262243 2.945772,-5.221868 10.085009,-5.730528 14.704014,-2.543885 6.530382,4.505298 7.018862,13.866631 2.417589,19.914844 C 63.65869,80.67382 52.070318,81.139248 44.647141,75.154397 35.515976,67.792499 35.073768,53.998591 42.415619,45.23631 51.140047,34.823965 67.113556,34.404364 77.188117,43.080538 88.868261,53.139433 89.266028,71.267183 79.27507,82.632574 67.904039,95.567893 47.645624,95.944576 35.007281,84.655879 20.828503,71.991251 20.472226,49.623781 33.043614,35.727813 c 13.94238,-15.411415 38.39914,-15.747884 53.539319,-1.907232 16.634057,15.2063 16.951237,41.73423 1.853421,58.106699"
  transform="matrix(1.2927594,0,0,1.3454047,-15.226638,-13.799301)" />
</svg>
